<?xml version="1.0" encoding="UTF-8" standalone="no"?>
<!-- Created with Inkscape (http://www.inkscape.org/) -->

<svg
   version="1.1"
   id="svg2"
   width="512"
   height="512"
   viewBox="0 0 512 512"
   sodipodi:docname="iconEsmeralda512.svg"
   inkscape:version="1.2 (dc2aedaf03, 2022-05-15)"
   inkscape:export-filename="iconEsmeralda512.png"
   inkscape:export-xdpi="96"
   inkscape:export-ydpi="96"
   xmlns:inkscape="http://www.inkscape.org/namespaces/inkscape"
   xmlns:sodipodi="http://sodipodi.sourceforge.net/DTD/sodipodi-0.dtd"
   xmlns="http://www.w3.org/2000/svg"
   xmlns:svg="http://www.w3.org/2000/svg">
  <defs
     id="defs6" />
  <sodipodi:namedview
     id="namedview4"
     pagecolor="#505050"
     bordercolor="#ffffff"
     borderopacity="1"
     inkscape:showpageshadow="0"
     inkscape:pageopacity="0"
     inkscape:pagecheckerboard="1"
     inkscape:deskcolor="#505050"
     showgrid="false"
     inkscape:zoom="1.03625"
     inkscape:cx="-64.656212"
     inkscape:cy="137.99759"
     inkscape:window-width="1920"
     inkscape:window-height="1009"
     inkscape:window-x="-8"
     inkscape:window-y="-8"
     inkscape:window-maximized="1"
     inkscape:current-layer="g8" />
  <g
     inkscape:groupmode="layer"
     inkscape:label="Image"
     id="g8">
    <rect
       style="opacity:1;fill:#ffffff;fill-opacity:1;stroke:#020202;stroke-width:0.377953"
       id="rect2526"
       width="522.07477"
       height="518.21472"
       x="-1.9300362"
       y="-0.96501809"
       rx="0"
       ry="0" />
    <path
       style="fill:#164944;fill-opacity:1;stroke-width:2.55998"
       d="m 157.62585,453.81095 c 0,-1.36296 1.3122,-2.47811 2.91602,-2.47811 1.6038,0 13.20679,-4.53289 25.78443,-10.0731 21.09923,-9.2938 22.4805,-10.34194 17.85399,-13.5481 -2.75795,-1.91125 -12.42749,-5.78661 -21.48789,-8.61196 -44.25614,-13.80056 -80.38774,-43.89033 -104.296744,-86.85649 -16.710277,-30.02956 -22.395654,-52.6414 -22.395654,-89.07183 0,-36.68944 5.635448,-58.84008 22.976505,-90.31089 14.620389,-26.5333 50.436803,-60.668937 77.327063,-73.698277 38.85224,-18.825379 81.14279,-26.446168 121.34243,-21.866 101.2046,11.530806 171.39411,81.937727 177.94041,178.491567 3.70594,54.66079 -17.55736,104.44603 -61.20096,143.29391 -39.92021,35.53364 -89.17268,52.41385 -152.98623,52.43264 -19.95785,0.005 -22.792,0.66507 -36.73702,8.54475 -22.30007,12.60073 -47.03635,19.83281 -47.03635,13.75189 z m 140.1616,-32.64881 c 31.30605,-5.55938 69.19117,-25.28932 94.87404,-49.40882 52.87628,-49.65764 70.52002,-122.0649 45.736,-187.69362 C 427.55924,155.35974 415.71337,138.15368 390.347,114.2666 372.56173,97.518524 363.17477,90.907907 345.3895,82.606061 303.61677,63.107284 257.64152,57.349096 212.67332,65.983968 189.02254,70.525434 150.70768,87.898207 131.55191,102.76613 56.266203,161.19986 39.187989,264.84968 92.19438,341.63196 c 21.19765,30.70583 44.97159,49.76576 84.30851,67.59138 27.7386,12.5698 39.29711,13.07717 50.13944,2.20093 9.73317,-9.76361 21.47343,-32.79956 29.05824,-57.01615 7.51655,-23.99864 6.12905,-28.09977 -8.86901,-26.21512 -21.57788,2.71148 -32.39718,22.20208 -32.24554,58.08938 0.0825,19.52162 -1.62248,25.03686 -5.10834,16.52457 -3.03351,-7.40764 -1.60119,-37.32124 2.39005,-49.91529 5.08819,-16.05539 15.63881,-26.62031 30.54463,-30.58598 18.4761,-4.91552 19.41349,-6.54578 20.56797,-35.77109 1.17125,-29.64892 -2.35911,-72.00475 -11.35999,-136.29246 -9.7375,-69.549009 -10.03761,-73.788877 -5.61745,-79.363221 3.8252,-4.824039 4.08155,-4.794811 18.28924,2.085256 19.20085,9.297993 41.32604,30.295415 50.57673,47.998715 9.18178,17.57143 11.50363,40.24357 6.77447,66.15047 -3.69485,20.24075 -3.3158,21.50617 12.11601,40.45053 10.927,13.41418 11.1236,16.93524 1.48751,26.64102 -5.42671,5.46597 -8.82108,13.02901 -12.28717,27.37721 -8.66692,35.87757 -9.32891,37.88949 -14.3955,43.75192 -4.25561,4.92408 -7.46593,5.81851 -21.0469,5.86391 -8.81391,0.0295 -17.08522,1.14461 -18.38066,2.47812 -1.29546,1.33349 -4.37412,10.23058 -6.84146,19.77132 -5.11659,19.78466 -14.0089,39.20674 -25.91479,56.60164 -6.74344,9.85236 -7.54301,12.40565 -4.47521,14.29068 4.25148,2.61233 44.10132,0.69036 65.88229,-3.17756 z m -0.60888,-97.57919 c 8.00529,-5.25424 10.64107,-10.53312 15.04719,-30.13639 2.0794,-9.25136 4.57708,-20.16613 5.5504,-24.25502 0.97336,-4.08888 5.20444,-11.55075 9.40241,-16.58194 4.198,-5.03118 7.63271,-10.14514 7.63271,-11.36436 0,-1.2192 -4.4627,-7.58648 -9.91711,-14.1495 l -9.91709,-11.93276 v -41.13382 c 0,-35.53454 -0.67496,-42.2949 -4.95844,-49.66346 -9.75311,-16.77753 -47.02548,-49.706009 -56.26319,-49.706009 -5.55111,0 -4.47772,19.844723 4.22231,78.060549 9.38386,62.79194 14.23224,120.12974 11.83608,139.97591 -2.22362,18.41725 0.26076,31.56629 6.24258,33.03844 9.12731,2.24632 15.39406,1.60793 21.12215,-2.15164 z"
       id="path170" />
  </g>
</svg>
