<?xml version="1.0" standalone="no"?>
<!DOCTYPE svg PUBLIC "-//W3C//DTD SVG 20010904//EN"
 "http://www.w3.org/TR/2001/REC-SVG-20010904/DTD/svg10.dtd">
<svg version="1.0" xmlns="http://www.w3.org/2000/svg"
 width="512.000000pt" height="512.000000pt" viewBox="0 0 512.000000 512.000000"
 preserveAspectRatio="xMidYMid meet">

<g transform="translate(0.000000,512.000000) scale(0.100000,-0.100000)"
fill="#000000" stroke="none">
<path d="M840 4793 c-17 -14 -36 -37 -41 -50 -7 -19 -89 -935 -89 -996 0 -15
-14 -17 -106 -17 -120 0 -161 -13 -197 -64 -20 -28 -22 -43 -22 -148 0 -134
10 -158 83 -193 41 -20 41 -20 42 -77 l0 -56 -137 -4 c-119 -3 -144 -7 -185
-27 -66 -32 -125 -92 -156 -159 l-27 -57 0 -1195 0 -1195 26 -56 c32 -68 82
-120 152 -157 l52 -27 302 -3 c209 -2 309 0 323 8 49 26 45 105 -6 129 -17 7
-116 11 -295 11 -293 0 -311 3 -361 56 -43 46 -48 74 -48 265 l0 179 846 0
845 0 -3 -197 c-3 -189 -4 -200 -26 -231 -13 -18 -41 -41 -62 -52 -36 -19 -60
-20 -318 -20 -267 0 -280 -1 -306 -21 -34 -27 -36 -77 -3 -107 23 -22 29 -22
315 -22 268 0 296 2 346 20 69 26 134 83 171 151 l30 54 0 1215 0 1215 -30 54
c-37 68 -102 125 -171 151 -44 16 -79 20 -179 20 l-125 0 0 59 c0 57 1 60 28
66 40 8 92 65 103 111 27 120 -1 236 -70 281 -30 20 -47 23 -142 23 -60 0
-109 1 -110 3 0 1 -20 227 -44 503 -46 541 -45 538 -106 570 -20 10 -63 14
-148 14 -115 0 -121 -1 -151 -27z m224 -200 c4 -43 9 -99 12 -125 l6 -48 -82
0 -82 0 6 108 c10 149 7 142 75 142 l59 0 6 -77z m26 -325 c6 -29 44 -530 41
-533 -2 -3 -64 -5 -138 -5 -120 0 -133 2 -133 18 0 9 9 118 20 242 11 124 20
237 20 253 l0 27 95 0 c52 0 95 -1 95 -2z m378 -750 l-3 -63 -467 -3 -468 -2
0 65 0 65 470 0 471 0 -3 -62z m-138 -273 l0 -55 -335 0 -335 0 0 55 0 55 335
0 335 0 0 -55z m420 -225 c21 -11 49 -34 62 -52 22 -31 23 -42 26 -230 l3
-198 -845 0 -846 0 0 179 c0 191 5 219 48 265 54 57 27 55 800 56 691 0 714
-1 752 -20z m-1330 -1270 l0 -640 -135 0 -135 0 0 640 0 640 135 0 135 0 0
-640z m1000 0 l0 -640 -425 0 -425 0 0 640 0 640 425 0 425 0 0 -640z m420 0
l0 -640 -130 0 -130 0 0 640 0 640 130 0 130 0 0 -640z"/>
<path d="M943 2103 c-55 -32 -170 -181 -219 -286 -17 -38 -24 -69 -24 -118 0
-159 130 -290 290 -290 173 -1 304 124 304 291 0 94 -52 196 -173 339 -66 78
-118 97 -178 64z m112 -223 c66 -86 98 -155 92 -196 -19 -119 -161 -168 -248
-86 -53 49 -63 107 -30 174 29 59 121 179 132 173 4 -3 29 -32 54 -65z"/>
<path d="M4312 4396 c-61 -20 -103 -56 -137 -117 l-30 -54 -5 -1165 -5 -1165
-22 -40 c-27 -50 -69 -89 -156 -144 -123 -79 -221 -206 -274 -356 -26 -76 -28
-89 -28 -257 l0 -177 29 -30 c16 -17 38 -33 48 -37 17 -5 18 -21 18 -220 0
-196 2 -218 20 -254 13 -26 34 -47 60 -60 38 -19 58 -20 556 -20 512 0 517 0
555 22 71 40 79 72 79 314 l0 209 30 17 c58 33 70 68 70 210 0 166 -18 259
-74 372 -56 113 -131 198 -239 270 -100 66 -129 96 -159 161 l-23 50 -5 1160
c-5 1053 -7 1163 -21 1190 -57 103 -181 155 -287 121z m135 -168 l22 -21 3
-1151 c4 -1296 -3 -1195 81 -1318 34 -50 64 -77 143 -130 198 -134 262 -248
271 -485 l6 -133 -587 0 -586 0 0 108 c0 234 74 377 254 496 103 68 177 148
208 224 l23 57 5 1163 5 1164 34 30 c27 24 39 29 64 24 17 -4 41 -16 54 -28z
m-417 -3583 l0 -195 -65 0 -65 0 0 195 0 195 65 0 65 0 0 -195z m280 0 l0
-195 -65 0 -65 0 0 195 0 195 65 0 65 0 0 -195z m280 0 l0 -195 -65 0 -65 0 0
195 0 195 65 0 65 0 0 -195z m280 0 l0 -195 -65 0 -65 0 0 195 0 195 65 0 65
0 0 -195z"/>
<path d="M2143 4289 c-81 -40 -81 119 -3 -1750 l70 -1664 28 -55 c35 -69 104
-110 188 -110 l54 0 0 -149 c0 -137 2 -151 23 -182 43 -64 65 -69 320 -69 263
0 281 4 322 75 23 39 25 51 25 183 l0 142 43 0 c85 1 174 67 197 147 5 21 26
423 45 893 19 470 37 890 40 932 5 70 3 79 -18 104 -29 34 -78 37 -109 7 -19
-20 -22 -54 -60 -959 -34 -806 -42 -941 -55 -956 -15 -17 -49 -18 -438 -18
-394 0 -423 1 -438 18 -15 16 -24 193 -77 1441 -33 783 -60 1441 -60 1462 l0
39 575 0 575 0 0 -37 c0 -21 -7 -189 -15 -373 -15 -324 -15 -336 3 -360 31
-41 98 -40 120 2 8 15 20 209 37 583 22 529 23 562 7 594 -9 19 -30 44 -45 55
-28 21 -40 21 -670 24 -632 2 -643 2 -684 -19z m1259 -136 c2 -5 2 -47 0 -95
l-3 -88 -583 0 -583 0 -6 87 c-3 49 -3 91 0 95 6 10 1171 10 1175 1z m-382
-3568 l0 -125 -195 0 -195 0 0 125 0 125 195 0 195 0 0 -125z"/>
<path d="M2632 3510 c-63 -38 -62 -32 -62 -647 0 -616 -2 -600 63 -647 26 -19
42 -21 182 -21 140 0 156 2 182 21 65 47 63 31 63 647 0 619 1 608 -64 648
-27 16 -52 19 -181 19 -133 0 -154 -2 -183 -20z m278 -650 l0 -520 -95 0 -95
0 0 520 0 520 95 0 95 0 0 -520z"/>
</g>
</svg>
