<?xml version="1.0" standalone="no"?>
<!DOCTYPE svg PUBLIC "-//W3C//DTD SVG 20010904//EN"
 "http://www.w3.org/TR/2001/REC-SVG-20010904/DTD/svg10.dtd">
<svg version="1.0" xmlns="http://www.w3.org/2000/svg"
 width="512.000000pt" height="512.000000pt" viewBox="0 0 512.000000 512.000000"
 preserveAspectRatio="xMidYMid meet">

<g transform="translate(0.000000,512.000000) scale(0.100000,-0.100000)"
fill="#000000" stroke="none">
<path d="M155 5095 l-25 -24 0 -396 c0 -353 -2 -395 -16 -395 -8 0 -29 -13
-45 -30 l-30 -30 3 -392 c3 -379 4 -395 26 -448 46 -116 142 -209 255 -248 51
-18 84 -22 184 -22 119 0 123 -1 127 -22 3 -13 41 -682 85 -1487 73 -1326 82
-1465 98 -1483 48 -53 124 -38 142 29 5 21 44 668 86 1438 41 770 78 1428 81
1462 l6 61 142 4 c135 3 144 5 207 35 83 41 159 120 202 210 l32 68 3 401 3
400 -27 27 c-15 15 -33 27 -40 27 -11 0 -14 75 -16 396 l-3 396 -28 24 -28 24
-700 0 -700 0 -24 -25z m305 -480 l0 -335 -85 0 -85 0 0 335 0 335 85 0 85 0
0 -335z m340 0 l0 -335 -85 0 -85 0 0 335 0 335 85 0 85 0 0 -335z m330 0 l0
-335 -80 0 -80 0 0 335 0 335 80 0 80 0 0 -335z m340 0 l0 -335 -85 0 -85 0 0
335 0 335 85 0 85 0 0 -335z m80 -590 l0 -85 -670 0 -670 0 0 85 0 85 670 0
670 0 0 -85z m0 -400 c0 -166 -6 -195 -54 -258 -14 -19 -50 -47 -78 -63 -52
-28 -56 -29 -230 -32 -171 -4 -177 -5 -199 -28 -22 -24 -23 -37 -64 -762 -25
-436 -44 -719 -48 -692 -4 25 -23 349 -42 720 -20 371 -38 685 -41 698 -2 12
-13 31 -24 42 -18 18 -34 20 -173 20 -181 0 -238 13 -298 67 -74 67 -83 96
-87 281 l-4 162 671 0 671 0 0 -155z"/>
<path d="M2341 5103 c-16 -13 -79 -192 -236 -663 -118 -355 -215 -655 -215
-667 0 -45 41 -70 250 -154 113 -45 225 -87 250 -94 69 -18 103 -40 154 -96
89 -99 154 -274 181 -488 14 -111 35 -348 35 -397 l0 -24 -735 0 c-780 0 -781
0 -799 -45 -17 -46 -2 -75 159 -317 l165 -248 0 -589 c0 -396 4 -607 11 -643
28 -133 108 -237 222 -292 40 -19 80 -37 90 -40 15 -5 17 -21 17 -145 0 -77 3
-147 6 -156 18 -46 -14 -45 1258 -45 l1195 0 28 24 28 24 3 151 c3 133 5 151
20 151 26 0 113 44 157 79 60 49 113 126 135 198 19 62 20 92 20 669 l0 604
170 255 c108 163 170 265 170 281 0 15 -12 38 -29 55 l-29 29 -241 0 -241 0 0
23 c0 12 7 157 16 322 l16 300 129 518 c143 573 140 555 72 587 l-33 15 0 308
0 308 -25 24 -24 25 -370 0 -369 0 -26 -31 -26 -31 0 -301 0 -302 -33 -15
c-63 -29 -64 -22 76 -583 l128 -512 14 -255 c8 -140 16 -288 19 -327 l6 -73
-460 0 c-303 0 -460 3 -460 10 0 47 31 558 35 568 3 9 42 12 145 12 78 0 149
4 159 10 31 16 46 65 31 100 -7 17 -21 35 -31 40 -10 6 -81 10 -158 10 l-141
0 0 24 c0 12 3 51 6 85 l7 61 133 0 c125 0 134 1 160 24 39 33 39 89 0 122
-25 23 -35 24 -157 24 l-129 0 0 54 c0 29 3 68 6 85 l7 31 126 0 c114 0 130 2
149 20 12 11 24 31 28 44 7 28 -18 81 -41 90 -9 3 -70 6 -136 6 l-119 0 0 84
0 84 125 4 c113 3 127 5 147 25 33 33 30 89 -6 119 -25 22 -36 24 -143 24
-101 0 -114 2 -109 16 3 9 6 47 6 85 l0 69 111 0 c109 0 111 0 140 29 31 32
34 46 19 85 -15 42 -58 56 -166 56 l-97 0 7 38 c3 20 6 56 6 80 l0 42 84 0
c101 0 142 13 161 51 21 39 19 53 -11 88 l-26 31 -342 0 -341 0 -213 85 c-116
47 -223 85 -236 85 -13 0 -33 -8 -45 -17z m241 -234 l126 -50 -23 -67 c-15
-43 -27 -66 -36 -64 -17 3 -242 84 -248 89 -7 5 39 143 47 143 4 0 64 -23 134
-51z m558 -111 c0 -43 -110 -2113 -116 -2175 l-6 -63 -43 0 -43 0 -7 83 c-21
261 -37 408 -55 492 -60 277 -167 458 -323 549 l-45 27 185 554 185 555 134 0
c132 0 134 0 134 -22z m1100 -228 l0 -250 -85 0 -85 0 0 250 0 250 85 0 85 0
0 -250z m330 0 l0 -250 -80 0 -80 0 0 250 0 250 80 0 80 0 0 -250z m-2018 11
l57 -22 -25 -72 c-13 -40 -26 -77 -28 -83 -3 -8 -49 5 -130 36 -70 26 -129 50
-132 53 -3 3 6 42 21 86 l26 80 77 -29 c42 -15 103 -38 134 -49z m-191 -296
c67 -25 126 -48 130 -51 6 -3 -36 -150 -47 -163 -3 -3 -253 87 -263 95 -4 3
49 164 54 164 2 0 59 -20 126 -45z m2269 -145 c0 -6 -50 -209 -111 -453 l-111
-442 -19 -325 c-10 -179 -19 -333 -19 -342 0 -15 -9 -18 -45 -18 -38 0 -45 3
-49 23 -3 12 -12 164 -21 337 l-16 315 -110 440 c-60 242 -112 448 -115 458
-5 16 14 17 305 17 204 0 311 -3 311 -10z m-2368 -186 c67 -25 124 -47 125
-48 2 -1 -8 -34 -21 -72 -15 -45 -28 -68 -37 -66 -17 3 -242 92 -248 97 -6 7
41 135 49 135 5 0 64 -21 132 -46z m2568 -1569 c0 -3 -50 -80 -110 -170 l-110
-165 -1464 0 -1463 0 -95 143 c-52 78 -103 154 -112 170 l-18 27 1686 0 c927
0 1686 -2 1686 -5z m-262 -1083 l-3 -589 -30 -49 c-38 -61 -116 -110 -189
-119 -28 -3 -586 -5 -1241 -3 -1121 3 -1192 4 -1230 21 -50 23 -100 70 -128
122 -22 40 -22 47 -25 623 l-3 582 1426 0 1425 0 -2 -588z m-328 -1007 l0 -85
-1090 0 -1090 0 0 85 0 85 1090 0 1090 0 0 -85z"/>
</g>
</svg>
