<?xml version="1.0" standalone="no"?>
<!DOCTYPE svg PUBLIC "-//W3C//DTD SVG 20010904//EN"
 "http://www.w3.org/TR/2001/REC-SVG-20010904/DTD/svg10.dtd">
<svg version="1.0" xmlns="http://www.w3.org/2000/svg"
 width="512.000000pt" height="512.000000pt" viewBox="0 0 512.000000 512.000000"
 preserveAspectRatio="xMidYMid meet">

<g transform="translate(0.000000,512.000000) scale(0.100000,-0.100000)"
fill="#000000" stroke="none">
<path d="M245 5105 c-75 -26 -145 -127 -145 -210 0 -89 -24 -63 820 -910 439
-440 811 -821 829 -847 44 -66 68 -126 87 -220 21 -103 16 -149 -45 -436 -27
-125 -52 -244 -55 -264 -14 -79 30 -166 117 -229 l40 -29 -377 0 -377 0 -24
-25 c-32 -31 -32 -69 0 -100 23 -24 30 -25 145 -25 l120 0 0 -326 c0 -204 4
-341 11 -369 14 -54 68 -119 122 -146 32 -17 54 -20 107 -17 80 4 134 35 177
100 l28 41 5 276 c5 261 6 278 27 318 41 77 120 123 210 123 33 0 60 -15 187
-104 81 -58 161 -109 178 -115 39 -14 109 -14 144 -1 26 10 35 3 253 -213 235
-233 255 -247 338 -247 75 0 115 26 256 169 150 150 160 169 112 216 -35 36
-68 32 -118 -15 l-43 -39 -154 154 c-169 170 -187 179 -235 130 -48 -48 -39
-64 130 -235 l156 -157 -41 -36 c-68 -63 -68 -63 -302 170 l-208 208 402 402
403 403 207 -207 c176 -176 208 -212 208 -237 0 -24 -22 -52 -122 -153 l-122
-123 -156 155 c-171 169 -187 178 -235 130 -50 -49 -42 -62 168 -272 164 -165
197 -193 222 -193 25 0 49 18 135 105 l105 105 443 0 443 0 26 -26 c24 -24 25
-30 19 -92 -14 -138 -97 -330 -223 -522 -183 -277 -458 -539 -711 -677 l-77
-43 -281 0 c-268 0 -281 -1 -302 -20 -14 -14 -22 -33 -22 -55 0 -22 8 -41 22
-55 21 -19 34 -20 270 -20 l248 0 0 -40 c0 -46 -21 -95 -45 -104 -9 -3 -500
-6 -1090 -6 -1229 0 -1114 -10 -1123 93 l-4 57 759 0 c750 0 759 0 781 20 30
28 30 82 0 110 -22 20 -31 20 -810 20 l-789 0 -62 31 c-136 69 -299 192 -447
341 -277 278 -485 635 -506 869 -6 63 -5 69 19 93 l26 26 196 0 c195 0 196 0
220 25 32 31 32 69 0 100 -24 25 -25 25 -222 25 -114 0 -215 -5 -238 -11 -53
-15 -129 -91 -144 -144 -15 -54 -14 -120 3 -202 89 -421 528 -975 972 -1226
l92 -52 4 -80 c7 -124 62 -205 157 -234 28 -8 340 -11 1127 -11 l1089 0 51 24
c87 40 134 127 134 246 l0 57 62 32 c335 176 713 577 894 946 100 206 142 389
114 491 -18 62 -87 134 -146 152 -29 8 -150 12 -417 12 l-376 0 10 32 c14 52
10 109 -12 157 -14 31 -85 111 -233 260 -181 183 -212 219 -206 236 17 40 10
128 -13 171 -12 22 -112 168 -222 324 -214 303 -242 333 -329 345 -56 8 -235
-29 -260 -55 -24 -24 -25 -74 -1 -100 22 -24 58 -25 157 -5 54 12 79 13 98 5
37 -16 424 -568 428 -611 3 -31 -21 -57 -475 -511 -387 -387 -483 -478 -504
-478 -30 0 -23 -4 -352 227 -137 97 -255 186 -263 198 -14 21 -10 45 42 287
50 231 57 277 58 373 0 159 -38 282 -127 415 -16 25 -387 403 -823 840 -860
862 -824 821 -769 875 54 55 14 90 865 -758 432 -431 803 -797 825 -814 150
-113 343 -165 525 -142 63 7 91 16 108 31 24 23 28 57 12 88 -19 36 -45 42
-129 30 -136 -19 -269 12 -392 91 -45 29 -296 272 -859 834 -684 683 -801 795
-835 804 -53 14 -101 13 -150 -4z m1505 -3299 c0 -3 -9 -20 -19 -38 -42 -71
-51 -139 -51 -390 0 -225 -1 -239 -20 -258 -27 -27 -81 -26 -106 1 -18 20 -19
43 -22 355 l-3 334 111 0 c60 0 110 -2 110 -4z"/>
</g>
</svg>
