<?xml version="1.0" standalone="no"?>
<!DOCTYPE svg PUBLIC "-//W3C//DTD SVG 20010904//EN"
 "http://www.w3.org/TR/2001/REC-SVG-20010904/DTD/svg10.dtd">
<svg version="1.0" xmlns="http://www.w3.org/2000/svg"
 width="512.000000pt" height="512.000000pt" viewBox="0 0 512.000000 512.000000"
 preserveAspectRatio="xMidYMid meet">

<g transform="translate(0.000000,512.000000) scale(0.100000,-0.100000)"
fill="#000000" stroke="none">
<path d="M3855 5090 l-29 -31 212 -212 212 -212 -27 -28 -28 -27 -212 212
-213 213 -27 -28 -28 -27 213 -213 212 -212 -27 -28 -28 -27 -212 212 -212
212 -31 -29 -31 -29 213 -213 213 -213 -28 -27 -27 -28 -213 213 -212 212 -28
-27 -27 -28 212 -212 213 -213 -33 -32 -32 -33 -213 213 -213 213 -29 -31 -29
-31 212 -212 212 -212 -27 -28 -28 -27 -212 212 -213 213 -27 -28 -28 -27 213
-213 212 -212 -27 -28 -28 -27 -212 212 -212 212 -26 -24 c-14 -13 -25 -28
-25 -34 0 -6 93 -104 207 -218 l208 -208 -28 -27 -27 -28 -213 213 -212 212
-28 -27 -27 -28 212 -212 213 -213 -28 -27 -27 -28 -208 208 c-114 114 -212
207 -218 207 -6 0 -21 -11 -34 -25 l-24 -26 212 -212 212 -212 -27 -28 -28
-27 -212 212 -212 212 -26 -24 c-14 -13 -25 -28 -25 -34 0 -6 93 -104 207
-218 l207 -207 -24 -26 -24 -26 -213 213 -212 212 -31 -29 -31 -29 213 -213
213 -213 -28 -27 -27 -28 -213 213 -213 213 -29 -31 -29 -31 212 -212 213
-213 -31 -29 -31 -29 -207 207 c-114 114 -212 207 -218 207 -6 0 -21 -11 -34
-25 l-24 -26 212 -212 212 -212 -27 -28 -28 -27 -212 212 -213 213 -27 -28
-28 -27 213 -213 212 -212 -27 -28 -28 -27 -212 212 -212 212 -31 -29 -31 -29
213 -213 213 -213 -28 -27 -27 -28 -213 213 -212 212 -28 -27 -27 -28 212
-212 213 -213 -23 -22 -22 -23 -213 213 -212 212 -28 -27 -27 -28 212 -212
213 -213 -28 -27 -27 -28 -208 208 c-114 114 -212 207 -218 207 -6 0 -21 -11
-34 -25 l-24 -26 212 -212 212 -212 -27 -28 -28 -27 -212 212 -213 213 -27
-28 -28 -27 213 -213 212 -212 -87 -87 -87 -87 24 -26 24 -25 -22 -22 -22 -22
-58 57 -57 57 -970 -970 -969 -969 17 -88 c32 -172 125 -300 260 -364 59 -27
176 -58 222 -59 13 0 344 324 987 967 l968 968 -60 60 -61 61 24 22 23 22 24
-25 c13 -14 28 -25 34 -25 6 0 48 37 93 82 l83 83 210 -210 210 -210 27 28 28
27 -210 210 -210 210 28 27 27 28 210 -210 209 -209 31 29 31 29 -211 211
-211 211 29 27 28 27 209 -210 209 -210 28 27 29 27 -211 211 -210 210 22 23
23 22 210 -210 211 -211 27 29 27 28 -210 209 -210 209 27 28 27 29 211 -211
211 -211 29 31 29 31 -209 209 -210 210 28 27 27 28 210 -210 210 -210 27 28
28 27 -210 210 -210 210 28 27 27 28 210 -210 209 -209 31 29 31 29 -211 211
-211 211 29 27 c15 15 32 27 38 27 5 1 100 -93 211 -207 l201 -208 31 30 32
29 -211 211 -210 210 27 28 28 27 210 -210 211 -211 29 31 29 31 -209 209
-210 210 28 27 27 28 210 -210 210 -210 27 28 28 27 -210 210 -210 210 28 27
27 28 210 -210 209 -209 31 29 31 29 -211 211 -210 210 27 28 28 27 210 -210
211 -211 29 31 29 31 -209 209 -209 209 24 26 24 26 211 -211 211 -211 29 31
29 31 -209 209 -210 210 28 27 27 28 210 -210 209 -209 26 24 c14 13 25 28 25
34 0 6 -92 103 -205 216 l-206 206 26 24 26 24 209 -209 209 -209 31 29 31 29
-211 211 -210 211 33 32 33 32 209 -210 209 -210 28 27 29 27 -211 211 -210
210 27 28 28 27 210 -210 211 -211 29 31 29 31 -209 209 -210 210 28 27 27 28
210 -210 210 -210 27 28 28 27 -210 210 -210 210 28 27 27 28 210 -210 209
-209 31 29 31 29 -211 211 -211 211 31 29 c34 32 36 48 16 97 -36 84 -213 275
-290 312 -49 23 -71 20 -111 -16 l-36 -31 -213 212 -212 212 -29 -31z m-1745
-2985 l165 -165 -905 -905 c-498 -498 -913 -905 -922 -905 -36 0 -158 53 -195
85 -45 38 -96 127 -114 199 l-12 48 904 904 c497 497 906 904 909 904 3 0 79
-74 170 -165z"/>
</g>
</svg>
