<?xml version="1.0" standalone="no"?>
<!DOCTYPE svg PUBLIC "-//W3C//DTD SVG 20010904//EN"
 "http://www.w3.org/TR/2001/REC-SVG-20010904/DTD/svg10.dtd">
<svg version="1.0" xmlns="http://www.w3.org/2000/svg"
 width="512.000000pt" height="512.000000pt" viewBox="0 0 512.000000 512.000000"
 preserveAspectRatio="xMidYMid meet">

<g transform="translate(0.000000,512.000000) scale(0.100000,-0.100000)"
fill="#000000" stroke="none">
<path d="M4129 5092 c-43 -22 -59 -38 -81 -81 l-28 -53 0 -272 c0 -162 4 -287
11 -310 13 -48 77 -118 126 -139 21 -9 71 -26 111 -37 l72 -21 0 -322 c1 -277
3 -328 18 -362 20 -50 19 -145 -3 -256 -47 -228 -141 -414 -275 -544 -28 -27
-58 -62 -66 -77 -18 -35 -18 -101 1 -138 17 -33 181 -175 233 -202 67 -34 166
-14 219 43 31 34 94 175 133 294 64 200 104 426 119 664 7 113 13 144 32 181
23 44 24 53 27 318 l3 273 32 -8 c18 -4 64 -8 104 -8 63 0 76 3 114 30 71 50
83 87 87 255 3 136 2 146 -18 168 -28 30 -82 30 -110 0 -18 -20 -20 -35 -20
-148 0 -110 -2 -129 -18 -143 -10 -10 -28 -17 -40 -17 -12 0 -173 43 -359 95
-281 80 -342 100 -360 121 -23 25 -23 30 -23 283 0 237 1 259 18 274 17 15 58
17 384 17 430 0 398 9 398 -117 0 -98 20 -133 75 -133 57 0 75 34 75 145 0 82
-3 99 -28 146 -22 43 -38 59 -81 81 l-53 28 -388 0 -388 0 -53 -28z m443 -978
l59 -17 -3 -284 -3 -285 -24 -19 c-31 -26 -57 -24 -86 6 l-25 24 0 296 c0 221
3 295 12 295 6 0 38 -7 70 -16z m-5 -867 c-15 -233 -74 -507 -148 -691 -48
-120 -63 -146 -88 -146 -10 0 -49 25 -87 56 -110 89 -107 74 -33 151 162 168
269 405 304 671 6 47 9 52 32 52 l26 0 -6 -93z"/>
<path d="M2480 3444 c-135 -35 -409 -195 -643 -376 -229 -177 -1681 -1345
-1709 -1375 -49 -51 -97 -144 -113 -217 -14 -61 -15 -153 -13 -661 l3 -590 28
-57 c32 -64 80 -111 146 -142 37 -16 71 -21 171 -24 116 -4 127 -2 153 18 37
29 38 80 1 109 -23 18 -41 21 -131 21 -119 0 -160 13 -196 64 -19 26 -22 47
-25 136 l-4 105 1041 835 c572 459 1044 836 1048 837 4 2 16 -23 25 -55 44
-151 182 -246 358 -246 206 0 315 67 647 395 l171 170 8 -58 c14 -111 -27
-229 -108 -315 -24 -26 -555 -456 -1180 -957 l-1137 -911 -118 0 c-126 -1
-145 -7 -161 -51 -11 -28 1 -66 26 -85 14 -11 179 -13 845 -14 919 0 916 0
1053 65 48 24 151 99 335 246 327 262 329 264 329 305 0 37 -38 74 -75 74 -15
0 -125 -82 -309 -230 -157 -126 -312 -243 -344 -259 -99 -50 -129 -52 -756
-49 l-579 3 713 572 c392 315 717 570 722 567 4 -3 8 -13 8 -22 0 -36 58 -138
100 -175 119 -108 327 -126 502 -43 69 33 196 135 331 265 59 57 110 101 115
97 4 -4 7 -49 6 -99 -1 -153 -46 -233 -196 -358 -60 -49 -101 -91 -104 -106
-13 -52 37 -103 88 -89 42 11 222 170 266 235 100 149 127 333 72 488 -16 45
-17 59 -7 72 6 9 42 50 78 92 132 155 227 324 245 436 9 61 -18 144 -60 181
-92 81 -221 67 -450 -48 -54 -28 -99 -50 -100 -50 -2 0 -2 46 -2 103 1 80 -4
118 -22 176 l-23 74 30 41 c57 76 140 221 161 281 42 118 10 249 -70 290 -158
82 -463 -53 -919 -404 -74 -56 -140 -105 -146 -107 -8 -3 -12 15 -13 53 -1 32
-8 81 -15 108 l-13 50 42 55 c153 203 204 358 155 465 -22 49 -48 73 -98 91
-49 17 -113 17 -183 -2z m148 -168 c9 -79 -64 -208 -230 -401 -114 -132 -359
-372 -453 -444 -122 -92 -266 -115 -369 -59 -52 29 -84 91 -88 169 l-3 57 240
192 c424 340 730 524 860 517 36 -2 40 -5 43 -31z m970 -278 c20 -20 13 -90
-14 -148 -56 -120 -232 -337 -446 -546 -163 -161 -278 -258 -341 -288 -98 -47
-227 -52 -304 -12 -63 32 -98 98 -104 194 l-4 51 190 153 c219 177 350 277
485 369 255 175 491 274 538 227z m-1174 -458 c-9 -25 -31 -64 -48 -87 -18
-25 -470 -394 -1120 -915 -598 -480 -1092 -874 -1097 -876 -13 -5 -11 716 2
776 24 116 29 121 624 598 432 347 551 438 557 425 4 -9 15 -38 24 -66 40
-111 161 -191 309 -202 190 -15 336 70 635 369 l125 125 3 -51 c2 -30 -4 -68
-14 -96z m1630 -402 c33 -93 -125 -321 -443 -638 -289 -289 -377 -345 -536
-344 -149 0 -208 56 -230 215 l-6 46 233 185 c309 244 334 263 476 356 211
138 378 215 457 210 33 -3 41 -7 49 -30z"/>
</g>
</svg>
