<?xml version="1.0" standalone="no"?>
<!DOCTYPE svg PUBLIC "-//W3C//DTD SVG 20010904//EN"
 "http://www.w3.org/TR/2001/REC-SVG-20010904/DTD/svg10.dtd">
<svg version="1.0" xmlns="http://www.w3.org/2000/svg"
 width="512.000000pt" height="512.000000pt" viewBox="0 0 512.000000 512.000000"
 preserveAspectRatio="xMidYMid meet">

<g transform="translate(0.000000,512.000000) scale(0.100000,-0.100000)"
fill="#000000" stroke="none">
<path d="M3657 5105 c-60 -22 -114 -71 -141 -128 -25 -51 -27 -72 -107 -1193
-45 -628 -79 -1153 -75 -1168 12 -48 47 -56 241 -56 l175 0 0 -778 0 -778 -84
-463 c-60 -327 -82 -470 -76 -486 21 -55 24 -55 420 -55 397 0 399 0 421 57 7
18 -13 142 -76 491 l-85 466 0 773 0 773 185 0 c184 0 186 0 210 25 20 19 25
34 25 72 0 26 -36 547 -80 1156 -78 1103 -79 1109 -105 1163 -31 62 -81 107
-144 129 -62 21 -646 21 -704 0z m657 -165 c14 -5 30 -19 37 -31 7 -13 40
-425 85 -1053 40 -567 75 -1052 77 -1078 l4 -48 -503 0 -504 0 0 38 c0 73 149
2119 156 2135 16 42 45 46 341 47 155 0 293 -4 307 -10z m-214 -3105 l0 -725
-85 0 -85 0 0 725 0 725 85 0 85 0 0 -725z m19 -947 c6 -29 36 -192 67 -363
30 -171 58 -320 61 -333 l5 -22 -242 0 c-225 0 -241 1 -236 18 5 17 136 736
136 747 0 3 45 5 99 5 l100 0 10 -52z"/>
<path d="M1219 3384 l-24 -26 -3 -321 -3 -322 -62 -18 c-78 -23 -210 -85 -274
-128 -195 -132 -326 -318 -390 -555 -25 -92 -27 -114 -27 -304 -1 -222 8 -296
66 -550 61 -269 212 -752 283 -905 39 -85 95 -149 166 -192 106 -63 104 -63
844 -63 713 0 718 1 814 49 56 29 136 104 167 157 54 93 203 543 279 844 131
519 134 837 12 1119 -94 217 -281 398 -511 492 -50 20 -108 40 -128 44 l-38 7
0 315 c0 329 -4 361 -45 377 -9 3 -261 6 -559 6 l-543 0 -24 -26z m1001 -229
l0 -85 -104 0 -104 0 -27 -32 c-32 -38 -29 -81 11 -115 22 -21 36 -23 125 -23
l99 0 0 -85 0 -85 -425 0 -425 0 0 85 0 85 176 0 c177 0 205 5 231 39 21 27
15 79 -12 106 -24 25 -26 25 -210 25 l-185 0 0 85 0 85 425 0 425 0 0 -85z
m222 -631 c280 -100 463 -310 522 -596 9 -42 16 -86 16 -97 0 -14 -53 -53
-207 -152 -285 -181 -341 -204 -508 -202 -131 1 -200 28 -503 191 -285 154
-360 185 -495 202 -169 21 -296 -9 -524 -124 -73 -36 -136 -66 -139 -66 -4 0
-4 48 -1 108 18 323 172 563 444 695 162 78 149 76 763 74 l545 -2 87 -31z
m-1110 -840 c67 -16 87 -25 394 -190 127 -68 264 -135 304 -149 157 -53 332
-54 487 -1 93 32 126 49 307 165 180 116 167 121 140 -58 -28 -194 -84 -422
-176 -719 l-41 -132 -956 2 -955 3 -29 90 c-81 254 -152 532 -181 709 l-13 87
166 83 c91 46 191 91 221 101 106 35 214 38 332 9z m1344 -1278 c-26 -103 -91
-185 -172 -216 -53 -19 -75 -20 -705 -20 -424 0 -665 4 -692 11 -71 17 -132
70 -165 141 -16 35 -33 73 -37 86 l-6 22 891 0 892 0 -6 -24z"/>
</g>
</svg>
