<?xml version="1.0" standalone="no"?>
<!DOCTYPE svg PUBLIC "-//W3C//DTD SVG 20010904//EN"
 "http://www.w3.org/TR/2001/REC-SVG-20010904/DTD/svg10.dtd">
<svg version="1.0" xmlns="http://www.w3.org/2000/svg"
 width="512.000000pt" height="512.000000pt" viewBox="0 0 512.000000 512.000000"
 preserveAspectRatio="xMidYMid meet">

<g transform="translate(0.000000,512.000000) scale(0.100000,-0.100000)"
fill="#000000" stroke="none">
<path d="M3087 5038 c-14 -14 -46 -91 -81 -193 -180 -525 -427 -1203 -556
-1525 -108 -271 -135 -318 -276 -480 -363 -416 -486 -603 -750 -1137 -95 -193
-192 -382 -215 -418 -47 -75 -171 -187 -371 -336 -275 -205 -516 -342 -690
-393 -92 -26 -107 -67 -63 -161 56 -118 155 -194 287 -221 40 -8 123 -28 183
-44 200 -53 279 -64 450 -64 231 -1 389 38 595 145 185 97 266 163 535 438
600 614 677 684 801 730 64 25 207 53 409 82 252 35 409 85 542 172 174 112
291 264 386 497 34 82 40 109 44 195 12 235 -64 395 -273 572 -107 90 -140
204 -111 376 31 181 16 158 592 947 437 600 529 731 529 757 0 58 -60 96 -109
70 -15 -7 -255 -328 -560 -747 -570 -784 -561 -770 -599 -940 -39 -171 -29
-315 29 -437 27 -56 50 -84 102 -130 155 -135 200 -197 228 -314 32 -137 16
-228 -70 -399 -101 -201 -252 -333 -455 -398 -91 -30 -130 -37 -365 -72 -248
-37 -333 -58 -431 -105 -114 -55 -210 -138 -464 -399 -588 -604 -655 -663
-855 -763 -174 -87 -310 -118 -510 -117 -166 2 -239 15 -628 115 -35 9 -107
62 -107 79 0 4 12 11 27 15 46 11 254 119 369 191 218 137 464 326 596 458 85
86 117 140 307 529 87 177 194 383 239 458 142 236 215 333 557 734 95 111
137 190 240 445 120 295 373 987 565 1547 56 164 61 186 51 211 -22 52 -87 67
-124 30z"/>
<path d="M564 4080 c-156 -22 -297 -154 -333 -311 -6 -26 -11 -222 -11 -477
l0 -434 29 -29 c25 -24 37 -29 80 -29 l50 0 3 -637 3 -638 27 -52 c52 -97 109
-123 277 -123 165 0 191 22 166 141 -31 147 -49 519 -25 519 5 0 16 13 25 30
13 24 15 86 15 395 l0 365 51 0 c43 0 55 5 80 29 l29 29 0 426 c0 277 -4 444
-11 478 -45 211 -240 347 -455 318z m166 -180 c46 -23 87 -65 114 -115 20 -39
21 -50 21 -429 l0 -389 -243 -1 -242 -1 0 370 c0 233 4 385 11 410 22 83 96
154 182 176 43 10 114 1 157 -21z m-30 -1420 l0 -320 -80 0 -80 0 0 320 0 320
80 0 80 0 0 -320z m-40 -609 c0 -113 15 -306 26 -343 5 -15 -2 -18 -41 -18
-98 0 -105 20 -105 281 l0 199 60 0 60 0 0 -119z"/>
</g>
</svg>
