<?xml version="1.0" standalone="no"?>
<!DOCTYPE svg PUBLIC "-//W3C//DTD SVG 20010904//EN"
 "http://www.w3.org/TR/2001/REC-SVG-20010904/DTD/svg10.dtd">
<svg version="1.0" xmlns="http://www.w3.org/2000/svg"
 width="512.000000pt" height="512.000000pt" viewBox="0 0 512.000000 512.000000"
 preserveAspectRatio="xMidYMid meet">

<g transform="translate(0.000000,512.000000) scale(0.100000,-0.100000)"
fill="#000000" stroke="none">
<path d="M2400 5104 c-142 -37 -276 -142 -338 -265 -32 -65 -100 -299 -826
-2839 -314 -1096 -336 -1180 -336 -1253 0 -78 20 -179 44 -225 11 -20 9 -30
-11 -70 -31 -61 -30 -122 3 -192 l25 -55 -23 -19 c-80 -66 -232 -94 -339 -63
-92 27 -143 70 -301 256 -83 97 -161 180 -174 185 -29 12 -64 -15 -64 -49 0
-25 261 -338 332 -399 169 -145 427 -151 610 -13 l57 43 77 -15 c64 -12 91
-13 158 -3 130 19 190 55 481 287 143 114 523 418 845 674 322 257 961 767
1421 1134 460 367 860 692 888 722 140 154 172 396 76 585 -50 99 -94 129
-139 95 -16 -12 -23 -10 -59 16 -109 79 -273 77 -387 -5 -25 -18 -369 -291
-765 -606 -396 -315 -751 -598 -790 -629 -139 -110 -176 -170 -183 -296 -4
-75 2 -105 32 -176 6 -13 -91 -95 -426 -361 -238 -190 -444 -354 -457 -365
l-24 -19 42 -55 c203 -267 61 -670 -269 -759 -67 -18 -195 -14 -267 8 -241 76
-390 337 -328 577 51 195 212 340 410 368 64 9 90 8 158 -6 44 -9 82 -15 84
-13 1 1 70 238 153 527 83 288 153 532 156 542 4 13 17 17 59 17 115 0 246 83
293 187 27 58 589 2017 598 2083 14 110 -52 252 -147 314 -41 28 -46 34 -42
62 3 20 -1 36 -11 46 -36 37 -196 49 -296 22z"/>
<path d="M1332 1201 c-162 -60 -260 -210 -250 -381 6 -104 46 -188 123 -259
74 -66 146 -94 250 -95 97 -1 160 19 230 72 227 171 193 518 -62 644 -85 42
-207 50 -291 19z"/>
</g>
</svg>
