<?xml version="1.0" standalone="no"?>
<!DOCTYPE svg PUBLIC "-//W3C//DTD SVG 20010904//EN"
 "http://www.w3.org/TR/2001/REC-SVG-20010904/DTD/svg10.dtd">
<svg version="1.0" xmlns="http://www.w3.org/2000/svg"
 width="512.000000pt" height="512.000000pt" viewBox="0 0 512.000000 512.000000"
 preserveAspectRatio="xMidYMid meet">

<g transform="translate(0.000000,512.000000) scale(0.100000,-0.100000)"
fill="#000000" stroke="none">
<path d="M4005 5031 c-92 -24 -173 -90 -215 -176 -23 -48 -24 -63 -31 -310 -6
-231 -9 -268 -29 -330 -29 -92 -73 -177 -122 -242 -37 -48 -44 -53 -80 -53
-28 0 -46 -7 -63 -25 l-25 -24 0 -271 0 -271 25 -24 c22 -23 32 -25 120 -25
l95 0 0 -89 0 -90 -87 -26 c-199 -61 -325 -160 -405 -320 -63 -124 -62 -111
-68 -705 l-5 -545 -34 60 c-56 99 -187 291 -307 450 -170 225 -165 220 -214
220 -48 0 -37 11 -192 -190 -247 -320 -415 -600 -491 -818 -29 -84 -32 -102
-31 -207 1 -133 27 -229 91 -340 49 -83 180 -214 263 -263 283 -164 649 -111
880 127 l44 46 26 -78 c52 -162 159 -289 302 -361 134 -67 166 -71 634 -71
374 0 418 2 486 19 228 59 390 221 449 449 18 72 19 118 19 1031 0 1046 0
1030 -59 1158 -80 171 -206 273 -413 338 l-88 27 0 89 0 89 95 0 c88 0 98 2
120 25 l25 24 0 271 0 271 -25 24 c-17 18 -35 25 -63 25 -36 0 -43 5 -80 53
-49 64 -93 150 -122 242 -21 63 -24 98 -29 330 -7 256 -7 261 -33 311 -39 75
-70 107 -137 143 -65 34 -164 49 -226 32z m163 -178 c66 -49 66 -51 73 -326 7
-294 19 -352 97 -509 l49 -98 -307 0 -307 0 49 98 c78 155 90 218 95 482 2
124 6 239 9 257 6 40 48 91 89 109 40 19 120 12 153 -13z m392 -1253 l0 -160
-480 0 -480 0 0 160 0 160 480 0 480 0 0 -160z m-240 -454 c0 -113 3 -137 18
-155 11 -14 54 -32 127 -52 143 -40 203 -69 269 -129 61 -56 118 -157 135
-238 15 -74 15 -1900 0 -1974 -27 -127 -119 -248 -235 -306 -97 -49 -134 -52
-554 -52 -420 0 -457 3 -554 52 -116 58 -208 179 -235 306 -18 85 -15 1921 3
1988 33 124 124 240 231 293 26 13 100 39 164 57 78 23 122 41 134 55 14 18
17 42 17 155 l0 134 240 0 240 0 0 -134z m-1718 -1164 c215 -280 396 -570 474
-762 35 -87 38 -103 38 -190 1 -240 -153 -445 -394 -526 -76 -26 -244 -26
-320 0 -253 85 -422 327 -396 569 12 120 119 340 288 592 88 131 260 365 268
365 3 -1 21 -22 42 -48z"/>
<path d="M3893 2549 c-84 -14 -234 -66 -286 -99 -27 -17 -62 -45 -79 -63 -70
-74 -103 -203 -78 -306 15 -62 69 -147 115 -181 l34 -25 1 -90 c0 -80 -5 -105
-40 -210 -22 -65 -40 -130 -40 -142 0 -13 11 -35 25 -48 20 -21 34 -25 79 -25
53 0 55 -1 61 -32 39 -180 249 -265 400 -162 20 14 39 24 40 22 6 -6 -46 -190
-75 -264 -17 -44 -54 -121 -81 -172 -27 -51 -49 -104 -49 -118 0 -42 42 -74
95 -74 58 0 183 26 246 51 149 58 292 193 362 341 56 116 63 147 83 355 40
416 -17 689 -202 969 -151 229 -348 317 -611 273z m290 -182 c98 -45 190 -157
274 -333 59 -125 92 -260 100 -404 6 -126 -10 -377 -32 -483 -28 -135 -110
-259 -221 -332 -51 -34 -154 -81 -154 -71 0 2 18 48 39 102 90 225 121 382
128 659 5 185 4 202 -13 222 -11 12 -149 77 -323 152 -167 71 -312 138 -324
148 -27 25 -57 91 -57 131 0 40 24 99 52 129 27 29 143 77 233 97 102 23 227
16 298 -17z m-145 -687 l122 -52 0 -104 0 -103 -77 -59 c-116 -88 -134 -95
-188 -70 -37 17 -55 57 -55 123 0 72 -28 105 -89 105 l-40 0 25 72 c16 48 24
94 24 139 l0 68 78 -33 c42 -18 132 -57 200 -86z"/>
<path d="M2160 1142 c0 -150 76 -293 198 -371 26 -16 59 -33 73 -36 25 -6 28
-3 48 56 26 78 26 86 0 94 -34 11 -108 85 -131 130 -13 25 -23 67 -26 113 l-5
72 -78 0 -79 0 0 -58z"/>
<path d="M241 4863 c-88 -31 -161 -136 -161 -233 0 -85 26 -127 170 -275 141
-144 177 -194 203 -280 30 -97 30 -121 3 -162 -114 -176 -42 -420 153 -516 59
-29 74 -32 156 -32 110 0 171 25 258 105 l58 53 507 -505 c457 -456 512 -507
556 -522 98 -32 192 -11 261 59 70 69 91 163 59 261 -15 44 -66 99 -522 556
l-505 507 51 55 c28 31 63 82 78 114 25 49 28 69 29 147 0 77 -4 98 -27 147
-94 201 -337 277 -520 162 -42 -27 -66 -27 -163 3 -86 26 -136 62 -280 203
-114 111 -149 140 -189 153 -60 21 -117 21 -175 0z m264 -282 c126 -122 155
-145 236 -185 50 -25 97 -46 105 -46 8 0 14 -3 14 -8 0 -9 -233 -242 -243
-242 -4 0 -7 6 -7 14 0 8 -21 55 -46 105 -40 81 -63 110 -185 236 -157 162
-165 180 -110 236 56 55 74 47 236 -110z m826 -209 c91 -47 132 -157 94 -250
-21 -50 -525 -557 -580 -583 -58 -27 -113 -24 -176 9 -91 47 -132 157 -94 250
21 50 525 557 580 583 58 27 113 24 176 -9z m492 -1110 c455 -456 497 -500
497 -531 0 -45 -46 -91 -92 -91 -30 0 -74 42 -533 500 l-500 500 60 60 c33 33
62 60 65 60 3 0 229 -224 503 -498z"/>
</g>
</svg>
