<?xml version="1.0" standalone="no"?>
<!DOCTYPE svg PUBLIC "-//W3C//DTD SVG 20010904//EN"
 "http://www.w3.org/TR/2001/REC-SVG-20010904/DTD/svg10.dtd">
<svg version="1.0" xmlns="http://www.w3.org/2000/svg"
 width="512.000000pt" height="512.000000pt" viewBox="0 0 512.000000 512.000000"
 preserveAspectRatio="xMidYMid meet">

<g transform="translate(0.000000,512.000000) scale(0.100000,-0.100000)"
fill="#000000" stroke="none">
<path d="M1588 5011 c-203 -129 -193 -491 18 -720 35 -38 90 -86 121 -107 119
-79 310 -121 435 -95 170 36 305 169 349 344 l11 47 339 0 339 0 0 -95 c0 -88
2 -98 25 -120 24 -25 27 -25 200 -25 l175 0 0 -55 c0 -46 4 -60 25 -80 13 -14
34 -25 45 -25 12 0 309 36 660 80 351 44 644 80 650 80 6 0 22 11 35 25 l25
24 0 271 0 271 -25 24 c-13 14 -29 25 -35 25 -6 0 -299 36 -650 80 -351 44
-648 80 -660 80 -11 0 -32 -11 -45 -25 -21 -20 -25 -34 -25 -80 l0 -55 -175 0
c-173 0 -176 0 -200 -25 -23 -22 -25 -32 -25 -120 l0 -95 -345 0 c-320 0 -346
1 -351 18 -52 159 -185 278 -348 312 -85 17 -193 -5 -320 -66 -27 -13 -55 -24
-61 -24 -14 0 -35 43 -35 71 0 11 -7 33 -15 48 -26 50 -70 54 -137 12z m2732
-211 c267 -33 502 -63 523 -66 l37 -6 0 -168 0 -168 -37 -6 c-21 -3 -256 -33
-523 -66 -267 -33 -502 -63 -522 -66 l-38 -6 0 312 0 312 38 -6 c20 -3 255
-33 522 -66z m-2126 0 c61 -23 137 -96 163 -158 10 -22 17 -66 17 -107 2 -247
-256 -369 -514 -243 -76 37 -163 120 -202 194 -50 94 -72 226 -48 289 l10 27
20 -25 c50 -64 141 -74 240 -26 147 71 223 83 314 49z m1406 -240 l0 -160
-120 0 -120 0 0 160 0 160 120 0 120 0 0 -160z"/>
<path d="M805 4468 c-89 -16 -204 -80 -278 -153 -77 -76 -138 -190 -156 -289
-6 -34 -11 -196 -11 -378 l0 -319 -50 -50 c-93 -93 -166 -220 -206 -359 -18
-62 -19 -133 -22 -1428 l-2 -1362 24 -25 25 -25 791 0 791 0 24 25 25 24 0
1330 c0 1438 1 1397 -54 1545 -36 95 -88 177 -163 256 l-63 67 0 320 c0 183
-5 345 -11 379 -6 32 -28 96 -50 141 -108 226 -359 349 -614 301z m279 -186
c91 -42 149 -100 194 -190 37 -76 37 -76 41 -225 l3 -149 -53 40 c-146 109
-311 146 -477 107 -68 -16 -162 -60 -208 -97 -73 -59 -67 -70 -62 97 3 143 5
153 35 217 40 84 97 147 172 186 78 42 122 52 213 48 61 -3 92 -11 142 -34z
m-43 -582 c112 -35 213 -132 255 -243 18 -50 19 -83 19 -744 0 -683 0 -692
-21 -719 -11 -15 -33 -37 -48 -48 -26 -20 -40 -21 -326 -21 -286 0 -300 1
-326 21 -15 11 -37 33 -48 48 -21 27 -21 36 -21 719 0 661 1 694 19 744 74
200 294 307 497 243z m-653 -1750 c35 -72 75 -114 144 -151 l63 -34 325 0 325
0 51 27 c76 40 107 70 145 140 l34 63 5 545 5 545 22 -35 c35 -57 61 -125 78
-204 13 -66 15 -238 15 -1341 l0 -1265 -680 0 -680 0 0 1265 c0 1103 2 1275
15 1341 17 79 43 147 78 204 l22 35 5 -545 c5 -541 5 -545 28 -590z"/>
<path d="M1065 3175 c-50 -49 -15 -135 55 -135 41 0 80 39 80 80 0 41 -39 80
-80 80 -19 0 -40 -9 -55 -25z"/>
<path d="M665 2855 c-50 -49 -15 -135 55 -135 41 0 80 39 80 80 0 41 -39 80
-80 80 -19 0 -40 -9 -55 -25z"/>
<path d="M905 2215 c-16 -15 -25 -36 -25 -55 0 -19 9 -40 25 -55 15 -16 36
-25 55 -25 19 0 40 9 55 25 16 15 25 36 25 55 0 19 -9 40 -25 55 -15 16 -36
25 -55 25 -19 0 -40 -9 -55 -25z"/>
<path d="M625 1175 c-16 -15 -25 -36 -25 -55 0 -19 9 -40 25 -55 l24 -25 271
0 271 0 24 25 c33 32 33 78 0 110 l-24 25 -271 0 -271 0 -24 -25z"/>
<path d="M625 695 c-16 -15 -25 -36 -25 -55 0 -19 9 -40 25 -55 l24 -25 271 0
271 0 24 25 c33 32 33 78 0 110 l-24 25 -271 0 -271 0 -24 -25z"/>
<path d="M3151 3746 c-89 -32 -154 -123 -154 -216 0 -90 25 -130 175 -277 175
-173 160 -172 319 -16 66 64 133 137 149 161 52 78 52 176 0 253 -58 87 -151
124 -248 99 -46 -12 -64 -13 -92 -3 -44 15 -106 15 -149 -1z m126 -167 c44
-27 83 -27 122 2 25 18 36 21 63 13 38 -11 62 -51 53 -87 -4 -13 -44 -62 -91
-108 l-84 -84 -90 90 c-77 76 -90 94 -90 122 0 38 29 73 61 73 12 0 37 -10 56
-21z"/>
<path d="M2205 3508 c-74 -26 -137 -96 -158 -175 -9 -36 -24 -63 -50 -88 -49
-48 -68 -87 -74 -154 -7 -72 23 -146 77 -195 27 -24 40 -45 45 -74 21 -128
154 -217 283 -189 26 5 58 10 72 10 14 0 46 -5 73 -10 128 -28 261 61 282 189
5 29 17 49 43 72 44 38 82 118 82 172 0 63 -27 129 -73 175 -30 29 -45 56 -55
92 -35 140 -178 219 -311 172 -36 -12 -46 -12 -82 0 -48 17 -110 18 -154 3z
m133 -173 c18 -15 42 -25 62 -25 20 0 44 10 62 25 39 33 81 33 115 -1 22 -22
25 -31 19 -72 -8 -63 9 -94 59 -110 53 -17 78 -44 78 -82 0 -36 -37 -80 -67
-80 -48 -1 -78 -50 -70 -112 12 -87 -62 -127 -136 -73 -19 14 -46 25 -60 25
-14 0 -41 -11 -60 -25 -46 -34 -92 -33 -120 2 -18 24 -21 36 -15 78 7 62 -16
99 -68 109 -59 11 -85 58 -63 111 11 27 23 36 55 45 55 15 84 53 76 101 -7 39
13 92 37 102 31 13 69 5 96 -18z"/>
<path d="M4318 3327 c-55 -42 -104 -115 -125 -186 l-17 -57 -70 -1 c-90 -1
-174 -32 -227 -82 -44 -43 -47 -58 -19 -119 32 -70 80 -129 136 -168 52 -36
53 -38 40 -63 -52 -101 -37 -288 25 -321 55 -30 202 7 283 72 26 21 43 28 51
22 117 -87 265 -130 317 -90 52 39 67 196 29 296 -13 35 -17 56 -10 59 26 8
97 71 130 115 50 65 71 131 55 170 -24 60 -209 130 -294 112 -27 -6 -29 -5
-46 53 -31 104 -134 221 -193 221 -12 0 -41 -15 -65 -33z m92 -200 c10 -23 22
-73 26 -110 6 -57 11 -71 33 -88 22 -18 33 -20 76 -13 65 10 182 11 192 0 14
-14 -84 -94 -137 -111 -79 -26 -90 -70 -41 -158 30 -53 58 -143 48 -154 -11
-11 -92 45 -138 96 -39 42 -52 51 -81 51 -28 0 -43 -10 -88 -56 -53 -54 -126
-101 -138 -90 -11 12 20 113 48 156 52 78 38 118 -53 159 -68 31 -127 75 -127
96 0 19 86 28 140 16 115 -27 138 -13 155 96 13 82 40 153 57 153 5 0 18 -19
28 -43z"/>
<path d="M2915 2455 c-25 -24 -25 -24 -25 -240 l0 -215 -223 0 c-265 0 -292
-6 -361 -80 -78 -84 -78 -37 -2 -885 37 -412 73 -768 79 -790 15 -54 98 -137
153 -153 31 -9 219 -12 731 -12 600 0 695 2 736 16 57 19 131 96 146 150 11
42 141 1450 141 1524 -1 58 -28 117 -75 163 -61 59 -99 67 -342 67 l-213 0 0
219 0 220 -26 20 c-26 20 -38 21 -361 21 l-334 0 -24 -25z m585 -295 l0 -160
-225 0 -225 0 0 160 0 160 225 0 225 0 0 -160z m605 -345 c29 -28 29 -37 11
-220 l-11 -120 -840 0 -840 0 -12 125 c-17 182 -17 187 12 215 l24 25 816 0
816 0 24 -25z m-19 -547 c-3 -24 -13 -126 -21 -228 -8 -102 -17 -204 -21 -227
l-5 -43 -774 0 -773 0 -6 48 c-3 26 -13 126 -21 222 -8 96 -18 196 -21 223
l-6 47 827 0 826 0 -5 -42z m-71 -768 c-11 -177 -19 -221 -45 -242 -21 -17
-59 -18 -702 -18 -416 0 -686 4 -697 10 -10 5 -23 22 -29 37 -11 28 -32 214
-32 285 l0 38 756 0 757 0 -8 -110z"/>
</g>
</svg>
