<?xml version="1.0" standalone="no"?>
<!DOCTYPE svg PUBLIC "-//W3C//DTD SVG 20010904//EN"
 "http://www.w3.org/TR/2001/REC-SVG-20010904/DTD/svg10.dtd">
<svg version="1.0" xmlns="http://www.w3.org/2000/svg"
 width="512.000000pt" height="512.000000pt" viewBox="0 0 512.000000 512.000000"
 preserveAspectRatio="xMidYMid meet">

<g transform="translate(0.000000,512.000000) scale(0.100000,-0.100000)"
fill="#000000" stroke="none">
<path d="M2698 5105 c-178 -45 -316 -175 -371 -350 -22 -70 -22 -74 -22 -815
0 -697 1 -748 18 -792 32 -81 136 -158 216 -158 l21 0 0 -919 0 -920 -29 -20
c-53 -38 -58 -64 -96 -467 -42 -456 -43 -489 -12 -535 60 -91 317 -151 514
-119 178 28 268 79 292 165 14 50 -61 860 -84 904 -8 17 -29 41 -45 53 l-30
22 0 918 0 918 30 0 c71 0 153 56 196 132 l29 53 3 725 c2 502 -1 746 -8 792
-30 179 -165 339 -336 399 -78 27 -210 33 -286 14z m260 -190 c120 -54 190
-164 200 -311 l5 -84 -105 0 c-91 0 -107 -3 -126 -20 -46 -43 -37 -109 18
-137 15 -7 64 -13 118 -13 l92 0 0 -85 0 -85 -104 0 c-104 0 -104 0 -130 -31
-34 -40 -33 -74 3 -110 29 -28 32 -29 130 -29 l101 0 0 -85 0 -85 -101 0 c-98
0 -101 -1 -130 -29 -17 -18 -29 -40 -29 -56 0 -16 12 -38 29 -56 29 -28 32
-29 130 -29 l101 0 0 -85 0 -85 -101 0 c-98 0 -101 -1 -130 -29 -31 -31 -36
-59 -17 -94 21 -41 39 -46 146 -47 l102 0 0 -54 c0 -44 -5 -60 -26 -85 l-26
-31 -288 0 -289 0 -28 24 -28 24 0 734 0 733 23 56 c74 184 278 266 460 184z
m-58 -2825 l0 -900 -85 0 -85 0 0 900 0 900 85 0 85 0 0 -900z m47 -1080 l49
-11 33 -384 c18 -211 31 -388 27 -393 -3 -5 -34 -18 -68 -28 -88 -26 -269 -25
-353 2 -54 18 -60 23 -63 49 -3 39 64 744 71 751 22 23 222 31 304 14z"/>
<path d="M1055 3826 c-200 -46 -371 -175 -462 -352 -75 -144 -76 -150 -80
-601 l-4 -403 -83 0 c-176 0 -314 -88 -389 -249 -56 -119 -55 -132 126 -1095
120 -636 164 -852 183 -892 51 -107 151 -188 271 -219 53 -14 140 -15 640 -13
573 3 579 3 633 25 115 47 210 147 243 255 9 29 74 420 144 868 146 936 149
960 96 1073 -43 90 -119 169 -202 209 -60 29 -77 33 -178 36 l-111 4 -5 402
c-4 447 -4 446 -76 592 -77 155 -225 282 -396 340 -98 32 -256 42 -350 20z
m253 -171 c176 -42 313 -167 374 -343 22 -65 23 -76 23 -452 l0 -385 -125 0
-125 0 -3 85 c-3 106 -7 124 -34 150 -37 34 -106 20 -127 -27 -6 -13 -11 -66
-11 -118 l0 -95 -85 0 -85 0 0 101 c0 98 -1 101 -29 130 -35 34 -74 38 -111 9
-23 -17 -25 -26 -30 -127 l-5 -108 -125 0 -125 0 -3 350 c-2 223 1 374 9 417
47 285 337 479 617 413z m775 -1370 c50 -21 104 -70 130 -119 16 -31 21 -59
21 -111 0 -41 -53 -415 -128 -890 -140 -897 -136 -883 -214 -942 -54 -41 -98
-53 -194 -53 l-78 0 0 99 c0 91 -2 102 -24 127 -33 39 -89 39 -122 0 -22 -25
-24 -36 -24 -127 l0 -99 -85 0 -85 0 0 99 c0 91 -2 102 -24 127 -33 39 -89 39
-122 0 -22 -25 -24 -36 -24 -127 l0 -99 -84 0 -84 0 -4 105 c-3 92 -6 107 -25
127 -33 33 -89 30 -119 -6 -22 -25 -24 -36 -24 -128 l0 -101 -66 6 c-78 6
-144 42 -187 103 -26 37 -40 103 -188 899 -119 638 -159 872 -155 907 9 86 60
157 141 197 39 20 64 20 886 21 730 0 851 -2 882 -15z"/>
<path d="M1068 1981 c-228 -153 -380 -428 -382 -691 -1 -74 4 -110 22 -162
128 -373 587 -481 854 -201 112 118 159 263 138 430 -29 234 -155 456 -339
597 -79 61 -113 76 -170 76 -42 0 -59 -7 -123 -49z m183 -157 c188 -138 315
-420 275 -612 -22 -106 -97 -200 -195 -245 -36 -17 -66 -22 -136 -22 -78 0
-97 4 -146 27 -107 53 -182 157 -195 270 -16 138 63 352 177 482 44 50 147
136 163 136 4 0 30 -16 57 -36z"/>
<path d="M4003 3826 c-107 -34 -187 -108 -224 -205 -19 -48 -23 -82 -27 -248
l-4 -192 -58 -35 c-121 -75 -225 -221 -261 -366 -12 -45 -14 -287 -14 -1320 0
-1146 2 -1268 16 -1301 23 -51 75 -107 123 -132 l41 -22 670 0 c634 0 672 1
705 19 49 26 98 74 123 121 l22 40 3 1250 c2 902 -1 1269 -9 1319 -25 150
-145 324 -274 397 l-55 31 0 178 c0 150 -3 188 -20 243 -26 84 -96 164 -178
204 l-57 28 -240 2 c-180 2 -251 -1 -282 -11z m531 -190 c79 -60 76 -28 76
-776 0 -568 -2 -675 -15 -725 -26 -101 -91 -179 -185 -224 -47 -22 -69 -26
-145 -26 -78 0 -97 4 -147 28 -71 35 -140 110 -167 183 -20 53 -21 73 -21 757
l0 702 26 39 c48 70 78 77 325 74 l216 -3 37 -29z m-760 -1556 c31 -95 67
-153 135 -220 107 -106 214 -150 361 -150 218 0 402 133 483 348 20 54 21 79
27 492 l5 435 43 -45 c52 -53 95 -134 111 -208 8 -38 11 -409 11 -1278 l0
-1226 -29 -29 -29 -29 -626 0 -625 0 -28 24 -28 24 -3 1199 c-2 775 1 1225 7
1276 13 95 47 169 109 238 l47 53 6 -425 c5 -369 8 -431 23 -479z"/>
<path d="M4145 3489 c-38 -22 -45 -41 -45 -121 0 -64 3 -81 20 -98 44 -44 115
-29 140 30 18 44 9 146 -16 170 -24 25 -73 34 -99 19z"/>
<path d="M4125 3045 l-25 -24 0 -419 0 -419 23 -20 c33 -30 62 -36 95 -19 52
27 53 38 50 475 l-3 403 -28 24 c-37 31 -81 31 -112 -1z"/>
<path d="M3890 1353 c-20 -10 -39 -30 -44 -45 -14 -41 3 -80 44 -101 32 -16
67 -17 392 -15 l356 3 26 24 c19 18 26 35 26 61 0 26 -7 43 -26 61 l-26 24
-356 3 c-325 2 -360 1 -392 -15z"/>
<path d="M3869 911 c-16 -16 -29 -39 -29 -51 0 -29 26 -76 45 -84 9 -3 183 -6
386 -6 l370 0 24 25 c25 24 32 65 19 100 -16 42 -45 45 -424 45 l-362 0 -29
-29z"/>
</g>
</svg>
